<svg width="24" height="24" viewBox="0 0 24 24" fill="none" xmlns="http://www.w3.org/2000/svg">
  <!-- Chat bubble -->
  <path d="M20 2H4c-1.1 0-2 .9-2 2v12c0 1.1.9 2 2 2h4l4 4 4-4h4c1.1 0 2-.9 2-2V4c0-1.1-.9-2-2-2z" 
        fill="currentColor" 
        fill-opacity="0.1"/>
  <path d="M20 2H4c-1.1 0-2 .9-2 2v12c0 1.1.9 2 2 2h4l4 4 4-4h4c1.1 0 2-.9 2-2V4c0-1.1-.9-2-2-2z" 
        stroke="currentColor" 
        stroke-width="1.5" 
        fill="none"/>
  
  <!-- Robot/AI head -->
  <rect x="7" y="6" width="10" height="8" rx="1.5" fill="currentColor" fill-opacity="0.3"/>
  <rect x="7" y="6" width="10" height="8" rx="1.5" stroke="currentColor" stroke-width="1.2" fill="none"/>
  
  <!-- Eyes (AI/robot style) -->
  <circle cx="10" cy="9.5" r="1.2" fill="currentColor"/>
  <circle cx="14" cy="9.5" r="1.2" fill="currentColor"/>
  
  <!-- Mouth (smile or line) -->
  <path d="M10 12.5c.5.5 1.5.5 2 0" stroke="currentColor" stroke-width="1.2" stroke-linecap="round" fill="none"/>
  
  <!-- Sparkle/AI indicator -->
  <circle cx="17" cy="7" r="1" fill="currentColor" fill-opacity="0.6"/>
</svg>
